<?xml version="1.0" standalone="no"?><!DOCTYPE svg PUBLIC "-//W3C//DTD SVG 1.1//EN" "http://www.w3.org/Graphics/SVG/1.1/DTD/svg11.dtd"><svg t="1630457013864" class="icon" viewBox="0 0 1024 1024" version="1.1" xmlns="http://www.w3.org/2000/svg" p-id="8211" xmlns:xlink="http://www.w3.org/1999/xlink" width="200" height="200"><defs><style type="text/css"></style></defs><path d="M914.564 207.27c-15.144-17.146-36.002-26.575-58.69-26.575H247.98l-2.332-13.46c-5.295-43.37-43.4-77.285-86.786-77.285h-38.54c-15.87 0-28.78 12.91-28.78 28.778s12.91 28.779 28.78 28.779h38.54c14.303 0 27.966 12.851 29.852 28.053l29.185 168.727 51.305 361.272c5.25 43.314 42.922 77.227 85.785 77.227h491.371c15.87 0 28.779-12.91 28.779-28.778 0-15.84-12.91-28.75-28.779-28.75H354.988c-13.794 0-26.936-12.445-28.706-27.183l-4.254-29.958 481.047-36.593c42.936 0 80.535-33.217 85.698-75.602l47.694-272.73c3.452-28.606-4.526-56.31-21.903-75.922zM362.821 816.005c-32.536 0-59.022 26.487-59.022 59.037 0 32.522 26.487 59.008 59.022 59.008 32.536 0 59.023-26.487 59.023-59.008 0-32.55-26.488-59.037-59.023-59.037zM786.365 816.005c-32.55 0-59.037 26.487-59.037 59.037 0 32.522 26.487 59.008 59.037 59.008 32.521 0 59.008-26.487 59.008-59.008 0-32.55-26.487-59.037-59.008-59.037z" fill="" p-id="8212"></path></svg>