<?xml version="1.0" standalone="no"?><!DOCTYPE svg PUBLIC "-//W3C//DTD SVG 1.1//EN" "http://www.w3.org/Graphics/SVG/1.1/DTD/svg11.dtd"><svg t="1630456834975" class="icon" viewBox="0 0 1024 1024" version="1.1" xmlns="http://www.w3.org/2000/svg" p-id="4146" xmlns:xlink="http://www.w3.org/1999/xlink" width="200" height="200"><defs><style type="text/css"></style></defs><path d="M939.175 484.343L557.721 107.755c-1.928-2.289-5.95-6.025-11.568-9.73-10.062-6.628-20.758-10.002-31.784-10.002-11.855 0-22.82 3.404-32.597 10.093-6.478 4.458-9.943 8.465-11.434 10.454L89.607 484.374C83.084 490.79 79.5 499.347 79.5 508.445c0 9.069 3.584 17.624 10.107 24.042 11.99 11.9 29.495 8.495 46.17-7.924l25.592-25.306 41.892-40.085V848.67c0 48.143 39.618 87.308 88.318 87.308h148.993V687.671c0-19.16 15.847-34.736 35.31-34.736h77.02c19.477 0 35.293 15.576 35.293 34.736v248.307h149.01c48.685 0 88.332-39.165 88.332-87.308V461.19l67.485 66.355c11.508 7.532 21.842 11.539 30.217 11.539 6.236 0 11.449-2.17 15.937-6.598 6.507-6.418 10.093-14.944 10.123-24.042-0.001-9.097-3.586-17.654-10.124-24.1z" fill="" p-id="4147"></path></svg>